<?xml version="1.0" encoding="UTF-8"?>
<svg width="196px" height="139px" viewBox="0 0 196 139" version="1.1" xmlns="http://www.w3.org/2000/svg" xmlns:xlink="http://www.w3.org/1999/xlink">
    <!-- Generator: Sketch 42 (36781) - http://www.bohemiancoding.com/sketch -->
    <title>Shape</title>
    <desc>Created with Sketch.</desc>
    <defs></defs>
    <g id="Page-1" stroke="none" stroke-width="1" fill="none" fill-rule="evenodd" fill-opacity="0.364130435">
        <g id="Desktop-HD" transform="translate(-1189.000000, -848.000000)" fill-rule="nonzero" fill="#000000">
            <path d="M1309.97182,945.188894 C1315.93767,954.929824 1323.69939,962.089784 1337.42695,962.089784 C1348.95905,962.089784 1356.32586,956.326087 1356.32586,948.362219 C1356.32586,938.81874 1348.7569,935.438562 1336.0636,929.886419 L1329.10579,926.901144 C1309.02218,918.344922 1295.68011,907.626137 1295.68011,884.966252 C1295.68011,864.09283 1311.58434,848.202702 1336.4397,848.202702 C1354.13509,848.202702 1366.8566,854.361302 1376.02398,870.486491 L1354.35135,884.402105 C1349.57961,875.845883 1344.43177,872.475107 1336.4397,872.475107 C1328.28778,872.475107 1323.12114,877.64645 1323.12114,884.402105 C1323.12114,892.751474 1328.29248,896.131652 1340.23358,901.302995 L1347.19139,904.283569 C1370.83853,914.424103 1384.19,924.762088 1384.19,948.004926 C1384.19,973.062434 1364.50599,986.79 1338.07102,986.79 C1312.22371,986.79 1295.52497,974.472801 1287.35425,958.328807 L1309.97182,945.188894 Z M1211.65518,947.600621 C1216.02732,955.357636 1220.00455,961.915839 1229.56684,961.915839 C1238.71071,961.915839 1244.47911,958.33821 1244.47911,944.427296 L1244.47911,849.791715 L1272.31034,849.791715 L1272.31034,944.803394 C1272.31034,973.62188 1255.41415,986.738287 1230.75154,986.738287 C1208.46776,986.738287 1195.5629,975.206191 1189,961.316433 L1211.65518,947.600621 Z" id="Shape"></path>
        </g>
    </g>
</svg>